<svg xmlns="http://www.w3.org/2000/svg" viewBox="0 0 512 512" role="img" aria-labelledby="title">
  <title id="title">WorldFront</title>
  <defs>
    <linearGradient id="bg" x1="0" y1="0" x2="1" y2="1">
      <stop offset="0" stop-color="#071026"/>
      <stop offset="1" stop-color="#122b62"/>
    </linearGradient>
    <linearGradient id="shield" x1="0" y1="0" x2="1" y2="1">
      <stop offset="0" stop-color="#56d7ff"/>
      <stop offset="1" stop-color="#3974ff"/>
    </linearGradient>
  </defs>
  <rect width="512" height="512" rx="112" fill="url(#bg)"/>
  <path d="M256 66 408 120v121c0 97-64 156-152 205-88-49-152-108-152-205V120Z" fill="#091431" stroke="url(#shield)" stroke-width="22"/>
  <path d="M256 130 329 156v76c0 52-28 85-73 111-45-26-73-59-73-111v-76Z" fill="url(#shield)"/>
  <path d="m256 157 21 43 47 6-35 34 10 47-43-22-43 22 10-47-35-34 47-6Z" fill="#071026"/>
</svg>
